<svg id="Layer_1" data-name="Layer 1" xmlns="http://www.w3.org/2000/svg" viewBox="0 0 100 100"><defs><style>.cls-1{fill:#00b451;}</style></defs><g id="Interface-Essential_Select_cursor-hand-1" data-name="Interface-Essential Select cursor-hand-1"><g id="Group_642" data-name="Group 642"><g id="cursor-hand-1"><g id="Shape_2742" data-name="Shape 2742"><path class="cls-1" d="M51.47,87.75a22.39,22.39,0,0,1-18.66-10L20.39,59.13a7.18,7.18,0,0,1,0-8,5.86,5.86,0,0,1,.37-.5,7.24,7.24,0,0,1,10.17-1.13l5,4V19.36a7.11,7.11,0,1,1,14.22,0h0V36A7.08,7.08,0,0,1,58.4,37.4,7.11,7.11,0,0,1,69.78,39a7.1,7.1,0,0,1,11,5.9V68.31A19.44,19.44,0,0,1,61.4,87.75H51.47Zm-25-35.88-.37,0a3.22,3.22,0,0,0-2.17,1.2c-.06.07-.11.15-.17.23a3.2,3.2,0,0,0,0,3.58L36.14,75.55a18.41,18.41,0,0,0,15.33,8.2H61.4A15.43,15.43,0,0,0,76.83,68.31V44.89a3.11,3.11,0,0,0-6.21,0h0a2,2,0,0,1-4,0h0V42.34a3.11,3.11,0,1,0-6.22,0,2,2,0,0,1-4,0,3.11,3.11,0,1,0-6.21,0h0a2,2,0,0,1-2,2h0a2,2,0,0,1-2-2h0v-23a3.11,3.11,0,0,0-6.22,0v38.3a2,2,0,0,1-1.13,1.8,2,2,0,0,1-2.12-.24l-8.3-6.64A3.22,3.22,0,0,0,26.42,51.87Z"/></g><g id="Shape_2743" data-name="Shape 2743"><path class="cls-1" d="M48.2,52a2,2,0,0,1-2-2V42.34a2,2,0,0,1,4,0V50A2,2,0,0,1,48.2,52Z"/></g><g id="Shape_2744" data-name="Shape 2744"><path class="cls-1" d="M58.41,52a2,2,0,0,1-2-2V42.34a2,2,0,0,1,4,0V50A2,2,0,0,1,58.41,52Z"/></g><g id="Shape_2745" data-name="Shape 2745"><path class="cls-1" d="M68.62,52a2,2,0,0,1-2-2V44.89a2,2,0,0,1,4,0V50A2,2,0,0,1,68.62,52Z"/></g></g></g></g></svg>