<svg id="Layer_1" data-name="Layer 1" xmlns="http://www.w3.org/2000/svg" viewBox="0 0 100 100"><defs><style>.cls-1{fill:#00b451;}</style></defs><g id="Interface-Essential_Paragraphs_paragraph-bullets" data-name="Interface-Essential Paragraphs paragraph-bullets"><g id="Group_460" data-name="Group 460"><g id="paragraph-bullets"><g id="Rectangle-path_132" data-name="Rectangle-path 132"><path class="cls-1" d="M81.63,90.48H18.37a6.87,6.87,0,0,1-6.87-6.86V20.35h0a6.86,6.86,0,0,1,6.87-6.86H81.63a6.87,6.87,0,0,1,6.87,6.86V83.62A6.87,6.87,0,0,1,81.63,90.48Zm-63.26-73a2.84,2.84,0,0,0-2,.83,2.89,2.89,0,0,0-.84,2h0V83.62a2.87,2.87,0,0,0,2.87,2.86H81.63a2.87,2.87,0,0,0,2.87-2.86V20.35a2.87,2.87,0,0,0-2.87-2.86Z"/></g><g id="Shape_2074" data-name="Shape 2074"><path class="cls-1" d="M71.9,32.08H57.3a2,2,0,0,1,0-4H71.9a2,2,0,0,1,0,4Z"/></g><g id="Shape_2075" data-name="Shape 2075"><path class="cls-1" d="M71.9,46.68H52.43a2,2,0,0,1,0-4H71.9a2,2,0,0,1,0,4Z"/></g><g id="Shape_2076" data-name="Shape 2076"><path class="cls-1" d="M71.9,61.28H52.43a2,2,0,0,1,0-4H71.9a2,2,0,0,1,0,4Z"/></g><g id="Shape_2077" data-name="Shape 2077"><path class="cls-1" d="M67,75.88H52.43a2,2,0,0,1,0-4H67a2,2,0,0,1,0,4Z"/></g><g id="Rectangle-path_133" data-name="Rectangle-path 133"><path class="cls-1" d="M42.7,46.68H28.1a2,2,0,0,1-2-2V30.08a2,2,0,0,1,2-2H42.7a2,2,0,0,1,2,2v14.6A2,2,0,0,1,42.7,46.68Zm-12.6-4H40.7V32.08H30.1Z"/></g><g id="Rectangle-path_134" data-name="Rectangle-path 134"><path class="cls-1" d="M42.7,75.88H28.1a2,2,0,0,1-2-2V59.28a2,2,0,0,1,2-2H42.7a2,2,0,0,1,2,2v14.6A2,2,0,0,1,42.7,75.88Zm-12.6-4H40.7V61.28H30.1Z"/></g></g></g></g></svg>