<svg id="Layer_1" data-name="Layer 1" xmlns="http://www.w3.org/2000/svg" viewBox="0 0 100 100"><defs><style>.cls-1{fill:#d41367;}</style></defs><g id="Interface-Essential_Form-Validation_check-badge" data-name="Interface-Essential Form-Validation check-badge"><g id="Group_387" data-name="Group 387"><g id="check-badge"><g id="Shape_1751" data-name="Shape 1751"><path class="cls-1" d="M47,64a4.67,4.67,0,0,1-2.81-.93,5.24,5.24,0,0,1-.5-.44L35.16,54.1A2,2,0,0,1,38,51.27l8.55,8.56.08.06a.67.67,0,0,0,1-.14l14.26-19a2,2,0,1,1,3.2,2.4l-14.26,19A4.65,4.65,0,0,1,47,64Z"/></g><g id="Shape_1752" data-name="Shape 1752"><path class="cls-1" d="M50,92.29a7.81,7.81,0,0,1-4.9-1.72,7.57,7.57,0,0,1-1.2-1.2l-5.41-6.74a3.86,3.86,0,0,0-3.41-1.41l-8.6.94a7.81,7.81,0,0,1-5.75-1.66,7.72,7.72,0,0,1-2.9-5.24,7.4,7.4,0,0,1,0-1.76l.93-8.59a3.85,3.85,0,0,0-1.41-3.41l-6.73-5.41a7.84,7.84,0,0,1-1.21-11,7.69,7.69,0,0,1,1.21-1.21l6.73-5.41a3.83,3.83,0,0,0,1.41-3.41l-.93-8.6a7.83,7.83,0,0,1,6.91-8.65,8.43,8.43,0,0,1,1.74,0l8.6.94a3.84,3.84,0,0,0,3.41-1.42l5.42-6.69a7.84,7.84,0,0,1,12.21,0l5.42,6.74a3.8,3.8,0,0,0,3.4,1.41l8.6-.93a7.83,7.83,0,0,1,8.65,6.93,7.07,7.07,0,0,1,0,1.72l-.93,8.6a3.8,3.8,0,0,0,1.41,3.4l6.74,5.42a7.84,7.84,0,0,1,1.19,11,7.44,7.44,0,0,1-1.19,1.19l-6.78,5.39a3.86,3.86,0,0,0-1.4,3.41l.93,8.6a7.83,7.83,0,0,1-6.92,8.65,8.34,8.34,0,0,1-1.73,0l-8.6-.94a3.83,3.83,0,0,0-3.4,1.41l-5.4,6.72A7.82,7.82,0,0,1,50,92.29ZM35.5,77.2a7.78,7.78,0,0,1,6.09,2.93L47,86.86a3.72,3.72,0,0,0,.6.59A3.84,3.84,0,0,0,53,86.86l5.39-6.71a7.8,7.8,0,0,1,6.95-2.89l8.61.94a4,4,0,0,0,.85,0A3.85,3.85,0,0,0,78.18,74l-.94-8.6a7.8,7.8,0,0,1,2.89-7L86.9,53a4,4,0,0,0,.58-.58A3.84,3.84,0,0,0,86.89,47l-6.73-5.42a7.79,7.79,0,0,1-2.89-6.95l.94-8.6a4,4,0,0,0,0-.85A3.86,3.86,0,0,0,74,21.82l-8.61.94a7.79,7.79,0,0,1-7-2.89L53,13.14a4.7,4.7,0,0,0-.59-.59,3.85,3.85,0,0,0-5.4.59h0l-5.42,6.69a7.79,7.79,0,0,1-7,2.87L26,21.78a4.12,4.12,0,0,0-.86,0A3.85,3.85,0,0,0,21.79,26l.94,8.61a7.8,7.8,0,0,1-2.89,7L13.11,47a3.66,3.66,0,0,0-.59.59A3.84,3.84,0,0,0,13.11,53l6.73,5.41a7.81,7.81,0,0,1,2.89,7l-.94,8.6a4.22,4.22,0,0,0,0,.87A3.83,3.83,0,0,0,26,78.18l8.61-.93A6.11,6.11,0,0,1,35.5,77.2Zm10-65.31h0Z"/></g></g></g></g></svg>