<svg id="Layer_1" data-name="Layer 1" xmlns="http://www.w3.org/2000/svg" viewBox="0 0 100 100"><defs><style>.cls-1{fill:#d41367;}</style></defs><g id="Computers-Devices-Electronics_Laptop-Actions_laptop-approve" data-name="Computers-Devices-Electronics Laptop-Actions laptop-approve"><g id="Group_110" data-name="Group 110"><g id="laptop-approve"><g id="Oval_35" data-name="Oval 35"><path class="cls-1" d="M63.39,90.61A21.54,21.54,0,1,1,84.93,69.08,21.36,21.36,0,0,1,63.39,90.61Zm0-39.07a17.54,17.54,0,1,0,0,35.07h0a17.54,17.54,0,1,0,0-35.07Z"/></g><g id="Shape_552" data-name="Shape 552"><path class="cls-1" d="M60.68,79a4.41,4.41,0,0,1-2.67-.9,4.25,4.25,0,0,1-.46-.4L52.66,72.8A2,2,0,1,1,55.49,70l4.88,4.89a.49.49,0,0,0,.38.12.43.43,0,0,0,.29-.17L70.5,62.2a2,2,0,0,1,3.2,2.4L64.24,77.21a4.41,4.41,0,0,1-2.93,1.73A4.46,4.46,0,0,1,60.68,79Z"/></g><g id="Shape_553" data-name="Shape 553"><path class="cls-1" d="M17,54a2,2,0,0,1-2-2V20.24a6.89,6.89,0,0,1,6.88-6.88H70.72a6.89,6.89,0,0,1,6.88,6.88V39.77a2,2,0,1,1-4,0V20.24a2.88,2.88,0,0,0-2.88-2.88H21.88A2.88,2.88,0,0,0,19,20.24V52A2,2,0,0,1,17,54Z"/></g><g id="Shape_554" data-name="Shape 554"><path class="cls-1" d="M34.09,66.19H21.88A14.23,14.23,0,0,1,7.67,52a2,2,0,0,1,2-2H39a2,2,0,0,1,0,4H11.87a10.22,10.22,0,0,0,10,8.21H34.09a2,2,0,0,1,0,4Z"/></g></g></g></g></svg>